<svg xmlns="http://www.w3.org/2000/svg" width="261" height="186.958" viewBox="0 0 261 186.958">
  <g id="Group_115" data-name="Group 115" transform="translate(-150.255 -103.902)">
    <path id="Path_1" data-name="Path 1" d="M183.836,160.433a41.362,41.362,0,0,1,10.771,1.794,36.93,36.93,0,0,1,10.77,4.744L200.633,178.9a59.219,59.219,0,0,0-8.719-3.205,30.731,30.731,0,0,0-7.949-1.026,14.535,14.535,0,0,0-11.476,5.257q-4.553,5.258-4.552,13.334t4.488,13.206a14.628,14.628,0,0,0,11.54,5.129,30.669,30.669,0,0,0,7.949-1.025,58.892,58.892,0,0,0,8.719-3.205l4.744,12.052a28.518,28.518,0,0,1-10.386,4.744,45.24,45.24,0,0,1-11.154,1.667,36.871,36.871,0,0,1-17.5-3.974,27.6,27.6,0,0,1-11.54-11.349,35.332,35.332,0,0,1-4.039-17.246,35.718,35.718,0,0,1,4.039-17.31,27.926,27.926,0,0,1,11.54-11.476A36.379,36.379,0,0,1,183.836,160.433Z" transform="translate(0 -28.937)" fill="#336fae" stroke="rgba(0,0,0,0)" stroke-miterlimit="10" stroke-width="1"/>
    <path id="Path_2" data-name="Path 2" d="M286.886,104.662l0,90.687H270.35V107.788Z" transform="translate(-62.053)" fill="#336fae" stroke="rgba(0,0,0,0)" stroke-miterlimit="10" stroke-width="1"/>
    <path id="Path_3" data-name="Path 3" d="M329.994,114.064a8.948,8.948,0,0,1-2.757,6.667,9.269,9.269,0,0,1-6.731,2.693,8.9,8.9,0,0,1-6.54-2.693,9.6,9.6,0,0,1,0-13.334,8.9,8.9,0,0,1,6.54-2.693,9.269,9.269,0,0,1,6.731,2.693A8.951,8.951,0,0,1,329.994,114.064Zm-1.026,18.206v62.187H312.3V132.27Z" transform="translate(-83.286 -0.021)" fill="#336fae" stroke="rgba(0,0,0,0)" stroke-miterlimit="10" stroke-width="1"/>
    <path id="Path_4" data-name="Path 4" d="M488.658,174.961v20.388H472.117V107.788l16.541-3.126v51.2l23.373-21.394,9.486,11.587L507.25,158.422l22.824,36.927H510.967l-15.642-26.285Z" transform="translate(-166.741)" fill="#336fae" stroke="rgba(0,0,0,0)" stroke-miterlimit="10" stroke-width="1"/>
    <path id="Path_5" data-name="Path 5" d="M359.557,281.26h11.284l5.129,12.821H359.557v26.414a12.855,12.855,0,0,0,2.372,8.078,8,8,0,0,0,6.731,3.077,15.577,15.577,0,0,0,6.8-1.667l4.873,12.053a17.352,17.352,0,0,1-5.706,2.693,23.758,23.758,0,0,1-6.86,1.153q-11.669,0-18.206-5.9t-6.54-16.539V294.081h-8.334V281.26h8.334V266.514l16.541-2.949Z" transform="translate(-95.432 -82.448)" fill="#fff" stroke="rgba(0,0,0,0)" stroke-miterlimit="10" stroke-width="1"/>
    <path id="Path_6" data-name="Path 6" d="M456.576,362a36.87,36.87,0,0,1-17.5-3.974,28,28,0,0,1-11.6-11.349,34.879,34.879,0,0,1-4.1-17.246,35.261,35.261,0,0,1,4.1-17.31,28.328,28.328,0,0,1,11.6-11.476,36.372,36.372,0,0,1,17.5-4.038,36.875,36.875,0,0,1,17.5,3.974,28.035,28.035,0,0,1,11.6,11.347,38.419,38.419,0,0,1,0,34.555,28.311,28.311,0,0,1-11.6,11.476A36.367,36.367,0,0,1,456.576,362ZM472.6,329.178q0-8.077-4.488-13.206a15.347,15.347,0,0,0-23.016.128q-4.553,5.258-4.551,13.334t4.488,13.207a15.349,15.349,0,0,0,23.016-.128Q472.6,337.257,472.6,329.178Z" transform="translate(-141.446 -99.594)" fill="#fff" stroke="rgba(0,0,0,0)" stroke-miterlimit="10" stroke-width="1"/>
    <path id="Path_7" data-name="Path 7" d="M626.977,329.178a37.417,37.417,0,0,1-3.783,17.183A27.2,27.2,0,0,1,612.232,357.9a33.827,33.827,0,0,1-17.053,4.1,25.019,25.019,0,0,1-11.156-2.949v30.9H567.483V298.277h.7l11.094,4.232a26.156,26.156,0,0,1,16.412-5.9q14.488,0,22.887,8.783T626.977,329.178Zm-17.182,0q0-8.2-3.91-13.27a12.927,12.927,0,0,0-10.835-5.065,20.042,20.042,0,0,0-11.027,3.719v29.619a19.256,19.256,0,0,0,11.027,3.589,12.845,12.845,0,0,0,10.77-5.193Q609.793,337.385,609.795,329.178Z" transform="translate(-216.222 -99.594)" fill="#fff" stroke="rgba(0,0,0,0)" stroke-miterlimit="10" stroke-width="1"/>
    <path id="Path_8" data-name="Path 8" d="M551.218,105.491,521.694,131.8l16.985-.093L549.55,145.06Z" transform="translate(-192.464 -0.43)" fill="#fff" stroke="rgba(0,0,0,0)" stroke-miterlimit="10" stroke-width="1"/>
    <path id="Path_9" data-name="Path 9" d="M393.681,210.567a30.668,30.668,0,0,1-7.949,1.025,14.624,14.624,0,0,1-11.54-5.129q-4.49-5.126-4.488-13.206t4.551-13.334a14.535,14.535,0,0,1,11.476-5.257,30.73,30.73,0,0,1,7.949,1.026A59.22,59.22,0,0,1,402.4,178.9l4.744-11.925a36.927,36.927,0,0,0-10.769-4.744,41.365,41.365,0,0,0-10.771-1.794,36.381,36.381,0,0,0-17.5,4.037,27.935,27.935,0,0,0-11.54,11.476,35.713,35.713,0,0,0-4.039,17.31,35.354,35.354,0,0,0,4.008,17.185l14.28-2.546V223.1a38.423,38.423,0,0,0,14.792,2.721,45.241,45.241,0,0,0,11.155-1.667,28.519,28.519,0,0,0,10.386-4.744L402.4,207.361A58.892,58.892,0,0,1,393.681,210.567Z" transform="translate(-104.689 -28.937)" fill="#336fae" stroke="rgba(0,0,0,0)" stroke-miterlimit="10" stroke-width="1"/>
    <path id="Path_10" data-name="Path 10" d="M172.617,312.622a7.677,7.677,0,0,1-.777,3.527,5.578,5.578,0,0,1-2.25,2.37,6.948,6.948,0,0,1-3.5.842,4.525,4.525,0,0,1-1.659-.342,7.421,7.421,0,0,1-1.606-.868l-.685.895H160.4v-18.3l3.4-.29v6.056a5.3,5.3,0,0,1,2.4-.579,6.2,6.2,0,0,1,4.7,1.8A6.777,6.777,0,0,1,172.617,312.622Zm-3.528,0a4.338,4.338,0,0,0-.8-2.725,2.655,2.655,0,0,0-2.225-1.041,4.113,4.113,0,0,0-2.264.764V315.7a3.959,3.959,0,0,0,2.264.737,2.639,2.639,0,0,0,2.212-1.066A4.405,4.405,0,0,0,169.089,312.622Z" transform="translate(-5.005 -101.59)" fill="#fff" stroke="rgba(0,0,0,0)" stroke-miterlimit="10" stroke-width="1"/>
    <path id="Path_11" data-name="Path 11" d="M193.081,322.9a3.614,3.614,0,0,0,1.684-.408A13.9,13.9,0,0,0,196.5,321.4v-8.846h3.423v12.77h-2.238l-.58-1.369a10.2,10.2,0,0,1-2.527,1.317,7.323,7.323,0,0,1-2.4.473,3.884,3.884,0,0,1-3.4-1.369,6.494,6.494,0,0,1-.974-3.817v-8h3.423V320.4a3.044,3.044,0,0,0,.486,1.843A1.592,1.592,0,0,0,193.081,322.9Z" transform="translate(-19.229 -107.864)" fill="#fff" stroke="rgba(0,0,0,0)" stroke-miterlimit="10" stroke-width="1"/>
    <path id="Path_12" data-name="Path 12" d="M219.762,325.267a9.289,9.289,0,0,1-2.291-.342,5.855,5.855,0,0,1-2.132-.974l1.027-2.318a8.485,8.485,0,0,0,3.344.869,3.551,3.551,0,0,0,1.448-.29q.658-.289.658-.816,0-1.028-2.238-1.712a9.991,9.991,0,0,1-3.028-1.554,2.919,2.919,0,0,1-1.211-2.4,3.416,3.416,0,0,1,1.343-2.857,5.785,5.785,0,0,1,3.634-1.04,8.215,8.215,0,0,1,2.185.369,7.639,7.639,0,0,1,2.185.974l-1.027,2.29a12.385,12.385,0,0,0-1.777-.658,6.157,6.157,0,0,0-1.619-.211,1.762,1.762,0,0,0-1.093.329.959.959,0,0,0-.434.777q0,.342.514.618a10.788,10.788,0,0,0,1.488.619,10.125,10.125,0,0,1,3.106,1.737,3.264,3.264,0,0,1,1.237,2.58,3.5,3.5,0,0,1-1.368,2.962A6.438,6.438,0,0,1,219.762,325.267Z" transform="translate(-33.51 -107.496)" fill="#fff" stroke="rgba(0,0,0,0)" stroke-miterlimit="10" stroke-width="1"/>
    <path id="Path_13" data-name="Path 13" d="M242.981,311.84a8.5,8.5,0,0,1,2.212.369,7.582,7.582,0,0,1,2.211.974l-.974,2.449a12.151,12.151,0,0,0-1.79-.659,6.328,6.328,0,0,0-1.633-.211,2.982,2.982,0,0,0-2.356,1.08,4.028,4.028,0,0,0-.935,2.738,3.968,3.968,0,0,0,.921,2.712,3.006,3.006,0,0,0,2.37,1.053,6.287,6.287,0,0,0,1.633-.211,12.077,12.077,0,0,0,1.79-.658l.974,2.475a5.855,5.855,0,0,1-2.132.974,9.289,9.289,0,0,1-2.291.342,7.565,7.565,0,0,1-3.593-.816,5.666,5.666,0,0,1-2.37-2.33,7.251,7.251,0,0,1-.829-3.541,7.326,7.326,0,0,1,.829-3.554,5.732,5.732,0,0,1,2.37-2.357A7.467,7.467,0,0,1,242.981,311.84Z" transform="translate(-44.328 -107.496)" fill="#fff" stroke="rgba(0,0,0,0)" stroke-miterlimit="10" stroke-width="1"/>
    <path id="Path_14" data-name="Path 14" d="M266.7,325.267a7.565,7.565,0,0,1-3.594-.816,5.751,5.751,0,0,1-2.383-2.33,7.165,7.165,0,0,1-.842-3.541,7.239,7.239,0,0,1,.842-3.554,5.818,5.818,0,0,1,2.383-2.357,7.468,7.468,0,0,1,3.594-.829,7.566,7.566,0,0,1,3.594.816,5.75,5.75,0,0,1,2.382,2.33,7.161,7.161,0,0,1,.843,3.541,7.234,7.234,0,0,1-.843,3.554,5.808,5.808,0,0,1-2.382,2.356A7.463,7.463,0,0,1,266.7,325.267Zm3.291-6.739a3.968,3.968,0,0,0-.921-2.712,3.15,3.15,0,0,0-4.726.026,4.031,4.031,0,0,0-.935,2.738,3.965,3.965,0,0,0,.922,2.712,3.152,3.152,0,0,0,4.726-.026A4.036,4.036,0,0,0,269.991,318.528Z" transform="translate(-56.621 -107.496)" fill="#fff" stroke="rgba(0,0,0,0)" stroke-miterlimit="10" stroke-width="1"/>
    <path id="Path_15" data-name="Path 15" d="M295.516,322.9a3.614,3.614,0,0,0,1.684-.408,13.9,13.9,0,0,0,1.738-1.093v-8.846h3.423v12.77h-2.238l-.58-1.369a10.2,10.2,0,0,1-2.527,1.317,7.322,7.322,0,0,1-2.4.473,3.884,3.884,0,0,1-3.4-1.369,6.494,6.494,0,0,1-.974-3.817v-8h3.423V320.4a3.044,3.044,0,0,0,.486,1.843A1.592,1.592,0,0,0,295.516,322.9Z" transform="translate(-72.378 -107.864)" fill="#fff" stroke="rgba(0,0,0,0)" stroke-miterlimit="10" stroke-width="1"/>
    <path id="Path_16" data-name="Path 16" d="M317.734,333.049a1.919,1.919,0,0,1,.566-1.342,1.76,1.76,0,0,1,1.329-.606,1.821,1.821,0,0,1,1.409.671,2.474,2.474,0,0,1,.593,1.7,5.848,5.848,0,0,1-1,3.08A7.025,7.025,0,0,1,318.154,339l-.763-1.633a10.443,10.443,0,0,0,1.237-1.184,2.779,2.779,0,0,0,.552-1.238,1.316,1.316,0,0,1-.961-.606A2.022,2.022,0,0,1,317.734,333.049Z" transform="translate(-86.46 -117.489)" fill="#fff" stroke="rgba(0,0,0,0)" stroke-miterlimit="10" stroke-width="1"/>
    <path id="Path_17" data-name="Path 17" d="M196.251,358.944a8.5,8.5,0,0,1,2.212.368,7.575,7.575,0,0,1,2.211.975l-.974,2.449a12.16,12.16,0,0,0-1.791-.659,6.326,6.326,0,0,0-1.632-.211,2.983,2.983,0,0,0-2.356,1.08,4.033,4.033,0,0,0-.935,2.738,3.966,3.966,0,0,0,.922,2.712,3.006,3.006,0,0,0,2.37,1.052,6.283,6.283,0,0,0,1.632-.211,12.035,12.035,0,0,0,1.791-.658l.974,2.475a5.843,5.843,0,0,1-2.132.974,9.3,9.3,0,0,1-2.291.343,7.564,7.564,0,0,1-3.593-.816,5.672,5.672,0,0,1-2.37-2.33,7.251,7.251,0,0,1-.829-3.541,7.327,7.327,0,0,1,.829-3.554,5.739,5.739,0,0,1,2.37-2.357A7.461,7.461,0,0,1,196.251,358.944Z" transform="translate(-20.082 -131.936)" fill="#fff" stroke="rgba(0,0,0,0)" stroke-miterlimit="10" stroke-width="1"/>
    <path id="Path_18" data-name="Path 18" d="M218.735,347.562V366.15h-3.4v-18.3Z" transform="translate(-33.51 -126.03)" fill="#fff" stroke="rgba(0,0,0,0)" stroke-miterlimit="10" stroke-width="1"/>
    <path id="Path_19" data-name="Path 19" d="M230.238,349.812a1.837,1.837,0,0,1-.566,1.368,1.9,1.9,0,0,1-1.383.553,1.827,1.827,0,0,1-1.342-.553,1.971,1.971,0,0,1,0-2.738,1.829,1.829,0,0,1,1.342-.553,1.907,1.907,0,0,1,1.383.553A1.839,1.839,0,0,1,230.238,349.812Zm-.211,3.738v12.77H226.6V353.55Z" transform="translate(-39.246 -126.2)" fill="#fff" stroke="rgba(0,0,0,0)" stroke-miterlimit="10" stroke-width="1"/>
    <path id="Path_20" data-name="Path 20" d="M242.981,358.944a8.493,8.493,0,0,1,2.212.368,7.569,7.569,0,0,1,2.211.975l-.974,2.449a12.157,12.157,0,0,0-1.79-.659,6.329,6.329,0,0,0-1.633-.211,2.982,2.982,0,0,0-2.356,1.08,4.03,4.03,0,0,0-.935,2.738,3.968,3.968,0,0,0,.921,2.712,3.007,3.007,0,0,0,2.37,1.052,6.287,6.287,0,0,0,1.633-.211,12.032,12.032,0,0,0,1.79-.658l.974,2.475a5.839,5.839,0,0,1-2.132.974,9.294,9.294,0,0,1-2.291.343,7.564,7.564,0,0,1-3.593-.816,5.666,5.666,0,0,1-2.37-2.33,7.251,7.251,0,0,1-.829-3.541,7.327,7.327,0,0,1,.829-3.554,5.733,5.733,0,0,1,2.37-2.357A7.461,7.461,0,0,1,242.981,358.944Z" transform="translate(-44.328 -131.936)" fill="#fff" stroke="rgba(0,0,0,0)" stroke-miterlimit="10" stroke-width="1"/>
    <path id="Path_21" data-name="Path 21" d="M266.7,372.371a7.565,7.565,0,0,1-3.594-.816,5.751,5.751,0,0,1-2.383-2.33,7.165,7.165,0,0,1-.842-3.541,7.24,7.24,0,0,1,.842-3.554,5.819,5.819,0,0,1,2.383-2.357,7.462,7.462,0,0,1,3.594-.829,7.566,7.566,0,0,1,3.594.816,5.752,5.752,0,0,1,2.382,2.33,7.161,7.161,0,0,1,.843,3.541,7.237,7.237,0,0,1-.843,3.554,5.807,5.807,0,0,1-2.382,2.356A7.463,7.463,0,0,1,266.7,372.371Zm3.291-6.74a3.969,3.969,0,0,0-.921-2.712,3.151,3.151,0,0,0-4.726.026,4.033,4.033,0,0,0-.935,2.738,3.966,3.966,0,0,0,.922,2.712,3.153,3.153,0,0,0,4.726-.026A4.037,4.037,0,0,0,269.991,365.631Z" transform="translate(-56.621 -131.936)" fill="#fff" stroke="rgba(0,0,0,0)" stroke-miterlimit="10" stroke-width="1"/>
    <path id="Path_22" data-name="Path 22" d="M295.516,370a3.62,3.62,0,0,0,1.684-.408,14.012,14.012,0,0,0,1.738-1.093v-8.847h3.423v12.77h-2.238l-.58-1.369a10.182,10.182,0,0,1-2.527,1.317,7.322,7.322,0,0,1-2.4.473,3.884,3.884,0,0,1-3.4-1.369,6.5,6.5,0,0,1-.974-3.818v-8h3.423V367.5a3.044,3.044,0,0,0,.486,1.843A1.592,1.592,0,0,0,295.516,370Z" transform="translate(-72.378 -132.304)" fill="#fff" stroke="rgba(0,0,0,0)" stroke-miterlimit="10" stroke-width="1"/>
    <path id="Path_23" data-name="Path 23" d="M317.734,380.153a1.92,1.92,0,0,1,.566-1.342,1.762,1.762,0,0,1,1.329-.606,1.822,1.822,0,0,1,1.409.672,2.473,2.473,0,0,1,.593,1.7,5.849,5.849,0,0,1-1,3.081,7.03,7.03,0,0,1-2.475,2.449l-.763-1.633a10.4,10.4,0,0,0,1.237-1.185,2.776,2.776,0,0,0,.552-1.237,1.316,1.316,0,0,1-.961-.605A2.024,2.024,0,0,1,317.734,380.153Z" transform="translate(-86.46 -141.929)" fill="#fff" stroke="rgba(0,0,0,0)" stroke-miterlimit="10" stroke-width="1"/>
    <path id="Path_24" data-name="Path 24" d="M197.008,409.417a8.373,8.373,0,0,0-1.923.25,9.49,9.49,0,0,0-1.79.592l-.921-2.844a7.223,7.223,0,0,1,2.185-.8,10.981,10.981,0,0,1,2.4-.356,6.375,6.375,0,0,1,2.791.605,5.067,5.067,0,0,1,2.015,1.685,4.147,4.147,0,0,1,.75,2.423v8.4h-2.238L199.693,418a4.671,4.671,0,0,1-3.371,1.685,4.781,4.781,0,0,1-3.449-1.119,3.994,3.994,0,0,1-1.159-3.015,3.659,3.659,0,0,1,1.316-3.014,5.441,5.441,0,0,1,3.528-1.066h2.5a2.141,2.141,0,0,0-.566-1.514A2.015,2.015,0,0,0,197.008,409.417Zm-.5,4.344a1.809,1.809,0,0,0-1.356.526,1.751,1.751,0,0,0-.513,1.264,1.308,1.308,0,0,0,.46,1,1.665,1.665,0,0,0,1.172.422,3.965,3.965,0,0,0,2.817-1.263v-1.949Z" transform="translate(-21.252 -156.485)" fill="#fff" stroke="rgba(0,0,0,0)" stroke-miterlimit="10" stroke-width="1"/>
    <path id="Path_25" data-name="Path 25" d="M222.968,406.258a8.5,8.5,0,0,1,2.212.368,7.575,7.575,0,0,1,2.211.975l-.974,2.449a12.151,12.151,0,0,0-1.791-.659,6.322,6.322,0,0,0-1.632-.211,2.984,2.984,0,0,0-2.356,1.08A4.032,4.032,0,0,0,219.7,413a3.969,3.969,0,0,0,.921,2.712,3.006,3.006,0,0,0,2.37,1.052,6.281,6.281,0,0,0,1.632-.211,12.033,12.033,0,0,0,1.791-.658l.974,2.475a5.841,5.841,0,0,1-2.132.974,9.3,9.3,0,0,1-2.291.343,7.565,7.565,0,0,1-3.594-.816,5.672,5.672,0,0,1-2.37-2.33,7.251,7.251,0,0,1-.829-3.541,7.328,7.328,0,0,1,.829-3.554,5.739,5.739,0,0,1,2.37-2.357A7.463,7.463,0,0,1,222.968,406.258Z" transform="translate(-33.944 -156.485)" fill="#fff" stroke="rgba(0,0,0,0)" stroke-miterlimit="10" stroke-width="1"/>
    <path id="Path_26" data-name="Path 26" d="M254.141,405.46v8h-3.423v-7.846a3.045,3.045,0,0,0-.487-1.843,1.593,1.593,0,0,0-1.356-.658,3.614,3.614,0,0,0-1.685.408,14.13,14.13,0,0,0-1.738,1.093v8.846h-3.4v-18.3l3.4-.289v6.793a10.274,10.274,0,0,1,2.238-1.027,6.941,6.941,0,0,1,2.08-.369,3.887,3.887,0,0,1,3.4,1.369A6.5,6.5,0,0,1,254.141,405.46Z" transform="translate(-47.372 -150.579)" fill="#fff" stroke="rgba(0,0,0,0)" stroke-miterlimit="10" stroke-width="1"/>
    <path id="Path_27" data-name="Path 27" d="M276.018,419.685a7.564,7.564,0,0,1-3.593-.816,5.749,5.749,0,0,1-2.384-2.33A7.166,7.166,0,0,1,269.2,413a7.241,7.241,0,0,1,.842-3.554,5.818,5.818,0,0,1,2.384-2.357,7.462,7.462,0,0,1,3.593-.829,7.565,7.565,0,0,1,3.594.816,5.756,5.756,0,0,1,2.383,2.33,7.166,7.166,0,0,1,.843,3.541,7.241,7.241,0,0,1-.843,3.554,5.811,5.811,0,0,1-2.383,2.356A7.463,7.463,0,0,1,276.018,419.685Zm3.291-6.74a3.969,3.969,0,0,0-.921-2.712,3.151,3.151,0,0,0-4.726.026,4.032,4.032,0,0,0-.935,2.738,3.968,3.968,0,0,0,.921,2.712,3.153,3.153,0,0,0,4.726-.026A4.035,4.035,0,0,0,279.309,412.945Z" transform="translate(-61.455 -156.485)" fill="#fff" stroke="rgba(0,0,0,0)" stroke-miterlimit="10" stroke-width="1"/>
    <path id="Path_28" data-name="Path 28" d="M304.834,417.316a3.622,3.622,0,0,0,1.684-.409,14.015,14.015,0,0,0,1.737-1.093v-8.847h3.423v12.77h-2.237l-.58-1.369a10.185,10.185,0,0,1-2.527,1.317,7.322,7.322,0,0,1-2.4.473,3.885,3.885,0,0,1-3.4-1.369,6.5,6.5,0,0,1-.974-3.818v-8h3.423v7.846a3.047,3.047,0,0,0,.486,1.843A1.593,1.593,0,0,0,304.834,417.316Z" transform="translate(-77.213 -156.853)" fill="#fff" stroke="rgba(0,0,0,0)" stroke-miterlimit="10" stroke-width="1"/>
    <path id="Path_29" data-name="Path 29" d="M327.255,411.655a1.838,1.838,0,0,1,.566-1.369,1.876,1.876,0,0,1,1.356-.553,1.908,1.908,0,0,1,1.382.553,1.938,1.938,0,0,1,0,2.738,1.9,1.9,0,0,1-1.382.553,1.872,1.872,0,0,1-1.356-.553A1.837,1.837,0,0,1,327.255,411.655Zm3.317-3.239-2.738-1.263-.448-12.059h3.581Z" transform="translate(-91.578 -150.693)" fill="#fff" stroke="rgba(0,0,0,0)" stroke-miterlimit="10" stroke-width="1"/>
  </g>
</svg>
