<svg xmlns="http://www.w3.org/2000/svg" width="59" height="60.914" viewBox="0 0 59 60.914"><defs><style>.a{fill:none;stroke:#003b6f;}</style></defs><g transform="translate(-2.5 -0.586)"><path class="a" d="M14,59V57h5.263a7.914,7.914,0,0,1,2.463-8H9A6,6,0,0,0,9,61H21.726a8.069,8.069,0,0,1-1.644-2Zm-3-8h6v2H11Zm1,8H8V57h4Z"/><path class="a" d="M27,49a6,6,0,1,0,6,6A6.006,6.006,0,0,0,27,49Zm0,4a2,2,0,0,0,0,4v2a4,4,0,0,1,0-8Z"/><path class="a" d="M34,35a6,6,0,1,0,6,6A6.006,6.006,0,0,0,34,35Zm0,4a2,2,0,0,0,0,4v2a4,4,0,0,1,0-8Z"/><path class="a" d="M36.058,48.722A7.99,7.99,0,0,1,34,49H32.274A8.019,8.019,0,0,1,34,51.136,8.035,8.035,0,0,1,36.058,48.722Z"/><path class="a" d="M16,47H28.726a8.069,8.069,0,0,1-1.644-2H21V43h5.263a7.914,7.914,0,0,1,2.463-8H16a6,6,0,0,0,0,12Zm-1-4h4v2H15Z"/><path class="a" d="M50.058,48.722a7.757,7.757,0,0,1-4.116,0A8.049,8.049,0,0,1,48,51.136,8.035,8.035,0,0,1,50.058,48.722Z"/><path class="a" d="M43.058,47.278A8.049,8.049,0,0,1,41,44.864a8.047,8.047,0,0,1-2.058,2.414,7.757,7.757,0,0,1,4.116,0Z"/><path class="a" d="M48,47a6,6,0,1,0-6-6A6.006,6.006,0,0,0,48,47Zm0-10v2a2,2,0,0,0,0,4v2a4,4,0,0,1,0-8Z"/><path class="a" d="M41,49a6,6,0,1,0,6,6A6.006,6.006,0,0,0,41,49Zm0,4a2,2,0,0,0,0,4v2a4,4,0,0,1,0-8Z"/><path class="a" d="M16,33H34a8,8,0,0,1,7,4.136,7.973,7.973,0,0,1,10.642-3.25,13.468,13.468,0,0,0-2.591-15.421l-1.282-1.282a10.324,10.324,0,0,1-4.374,6.423l-1.84,1.227A1,1,0,0,1,40,24v-.925a12.027,12.027,0,0,0-8.929-11.621L25.34,9.926l1.125,1.125A8.6,8.6,0,0,1,29,17.172,8.7,8.7,0,0,1,25.538,24.1l-.938.7A1,1,0,0,1,23,24a8.736,8.736,0,0,0-3.649-7.093L18,15.943v1.063a8.192,8.192,0,0,1-2.423,5.83A8.594,8.594,0,0,0,13,28.973v.1a8.816,8.816,0,0,0,1.068,4.168A7.947,7.947,0,0,1,16,33Z"/><path class="a" d="M55,49a6,6,0,1,0,6,6A6.006,6.006,0,0,0,55,49Zm2,4a2,2,0,0,0,0,4v2a4,4,0,0,1,0-8Z"/><path class="a" d="M58.586,8a1.415,1.415,0,0,1,0,2l-1.293,1.293,1.414,1.414L60,11.414a3.414,3.414,0,0,0,0-4.828L59.414,6a1.415,1.415,0,0,1,0-2l1.293-1.293L59.293,1.293,58,2.586a3.414,3.414,0,0,0,0,4.828Z"/><path class="a" d="M51.586,10a1.415,1.415,0,0,1,0,2l-1.293,1.293,1.414,1.414L53,13.414a3.414,3.414,0,0,0,0-4.828L52.414,8a1.415,1.415,0,0,1,0-2l1.293-1.293L52.293,3.293,51,4.586a3.414,3.414,0,0,0,0,4.828Z"/><path class="a" d="M4,6.586a3.414,3.414,0,0,0,0,4.828l1.293,1.293,1.414-1.414L5.414,10a1.415,1.415,0,0,1,0-2L6,7.414A3.414,3.414,0,0,0,6,2.586L4.707,1.293,3.293,2.707,4.586,4a1.415,1.415,0,0,1,0,2Z"/><path class="a" d="M11,8.586a3.414,3.414,0,0,0,0,4.828l1.293,1.293,1.414-1.414L12.414,12a1.415,1.415,0,0,1,0-2L13,9.414a3.414,3.414,0,0,0,0-4.828L11.707,3.293,10.293,4.707,11.586,6a1.415,1.415,0,0,1,0,2Z"/></g></svg>