<svg xmlns="http://www.w3.org/2000/svg" width="30.18" height="30.181" viewBox="0 0 30.18 30.181"><defs><style>.a{fill:#fff;}</style></defs><path class="a" d="M291.234,508.668q-.189.031-.379.057Q291.045,508.7,291.234,508.668Zm0,0" transform="translate(-273.711 -478.684)"/><path class="a" d="M299.52,507.793l-.18.032Zm0,0" transform="translate(-281.695 -477.861)"/><path class="a" d="M278.053,510.34q-.221.025-.444.044Q277.832,510.365,278.053,510.34Zm0,0" transform="translate(-261.245 -480.257)"/><path class="a" d="M286.658,509.738l-.213.026Zm0,0" transform="translate(-269.561 -479.691)"/><path class="a" d="M306.823,506.41l-.159.033Zm0,0" transform="translate(-288.587 -476.559)"/><path class="a" d="M324.613,502.113l-.128.036Zm0,0" transform="translate(-305.357 -472.516)"/><path class="a" d="M319.2,503.543l-.14.036Zm0,0" transform="translate(-300.251 -473.861)"/><path class="a" d="M312.215,505.254l-.149.033Zm0,0" transform="translate(-293.671 -475.471)"/><path class="a" d="M273.719,511.09l-.239.018Zm0,0" transform="translate(-257.36 -480.963)"/><path class="a" d="M30.18,15.09A15.09,15.09,0,1,0,15.09,30.18c.089,0,.177,0,.265,0V18.43H12.113V14.652h3.242v-2.78c0-3.225,1.968-4.98,4.845-4.98a26.688,26.688,0,0,1,2.907.149v3.37H21.123c-1.565,0-1.868.744-1.868,1.835v2.406H23l-.488,3.778H19.255V29.6A15.1,15.1,0,0,0,30.18,15.09Zm0,0"/><path class="a" d="M265.364,511.43q-.236.015-.473.023Q265.128,511.445,265.364,511.43Zm0,0" transform="translate(-249.276 -481.283)"/><path class="a" d="M260.754,511.836l-.251.006Zm0,0" transform="translate(-245.148 -481.665)"/></svg>