<svg xmlns="http://www.w3.org/2000/svg" width="69.089" height="69.061" viewBox="0 0 69.089 69.061"><defs><style>.a{fill:none;stroke:#003b6f;}</style></defs><g transform="translate(0.529 0.532)"><path class="a" d="M396.426,268.344H404.4v19.087h-7.972Zm0,0" transform="translate(-343.752 -232.689)"/><path class="a" d="M282.809,268.344h7.972v19.087h-7.972Zm0,0" transform="translate(-245.231 -232.689)"/><path class="a" d="M169.191,268.344h7.972v19.087h-7.972Zm0,0" transform="translate(-146.71 -232.689)"/><path class="a" d="M55.578,268.344H63.55v19.087H55.578Zm0,0" transform="translate(-48.192 -232.689)"/><path class="a" d="M94.153,210.337v-1.993H35.578v1.993a1.993,1.993,0,0,0,1.993,1.993H92.16A1.993,1.993,0,0,0,94.153,210.337Zm0,0" transform="translate(-30.85 -180.661)"/><path class="a" d="M66.049,442H2.009a1.993,1.993,0,0,0-1.993,1.993v5.315A1.993,1.993,0,0,0,2.009,451.3h64.04a1.993,1.993,0,0,0,1.993-1.993v-5.315A1.993,1.993,0,0,0,66.049,442Zm0,0" transform="translate(-0.012 -383.272)"/><path class="a" d="M1.994,23.7H66.037a1.993,1.993,0,0,0,1.045-3.69L35.06.3a1.993,1.993,0,0,0-2.09,0L.949,20.006A1.993,1.993,0,0,0,1.994,23.7ZM32.661,11.723h2.71a1.993,1.993,0,0,1,0,3.986h-2.71a1.993,1.993,0,0,1,0-3.986Zm0,0" transform="translate(0)"/></g></svg>