<svg xmlns="http://www.w3.org/2000/svg" width="69.551" height="69.058" viewBox="0 0 69.551 69.058"><defs><style>.a{fill:none;stroke:#003b6f;}</style></defs><g transform="translate(0.747 0.5)"><path class="a" d="M216.982,75a5.982,5.982,0,1,0,5.982,5.982A5.989,5.989,0,0,0,216.982,75Zm0,0" transform="translate(-182.953 -65.031)"/><path class="a" d="M151.951,0a15.954,15.954,0,0,0-13.5,24.448l13.5,21.544,13.5-21.544A15.954,15.954,0,0,0,151.951,0Zm0,25.92a9.969,9.969,0,1,1,9.969-9.969A9.981,9.981,0,0,1,151.951,25.92Zm0,0" transform="translate(-117.922)"/><path class="a" d="M183,433.1h19.4L200.864,421H184.491Zm0,0" transform="translate(-158.671 -365.038)"/><path class="a" d="M197.992,332.571h6.768l-5.648-8.957Zm0,0" transform="translate(-171.674 -280.597)"/><path class="a" d="M333.82,312.963h15.709L344.543,301H332.285Zm0,0" transform="translate(-288.116 -260.989)"/><path class="a" d="M50,312.963H65.65L67.146,301H54.981Zm0,0" transform="translate(-43.35 -260.989)"/><path class="a" d="M263.094,333.319h6.71l-1.133-8.843Zm0,0" transform="translate(-228.122 -281.345)"/><path class="a" d="M21.8,421H4.984L0,433.1H20.306Zm0,0" transform="translate(0 -365.038)"/><path class="a" d="M364.531,421H347.672l1.534,12.1h20.31Zm0,0" transform="translate(-301.457 -365.038)"/></g></svg>