<svg xmlns="http://www.w3.org/2000/svg" width="30.18" height="30.181" viewBox="0 0 30.18 30.181"><defs><style>.a{fill:#fff;}</style></defs><path class="a" d="M224.113,213.693l4.909-2.827-4.909-2.827Zm0,0" transform="translate(-210.903 -195.776)"/><path class="a" d="M15.09,0A15.09,15.09,0,1,0,30.18,15.09,15.092,15.092,0,0,0,15.09,0Zm9.429,15.106a24.906,24.906,0,0,1-.388,4.536A2.363,2.363,0,0,1,22.469,21.3a57.354,57.354,0,0,1-7.379.388,55.3,55.3,0,0,1-7.379-.4,2.363,2.363,0,0,1-1.662-1.662,24.8,24.8,0,0,1-.388-4.536,24.889,24.889,0,0,1,.388-4.536A2.411,2.411,0,0,1,7.712,8.877a57.354,57.354,0,0,1,7.379-.388s5.9,0,7.379.4a2.363,2.363,0,0,1,1.662,1.662A23.635,23.635,0,0,1,24.519,15.106Zm0,0"/></svg>