<svg xmlns="http://www.w3.org/2000/svg" width="30.18" height="30.181" viewBox="0 0 30.18 30.181"><defs><style>.a{fill:#fff;}</style></defs><path class="a" d="M15.09,0A15.09,15.09,0,1,0,30.18,15.09,15.092,15.092,0,0,0,15.09,0ZM10.705,22.812H7.03V11.755h3.675ZM8.868,10.246H8.844a1.915,1.915,0,1,1,.048-3.82,1.916,1.916,0,1,1-.024,3.82ZM23.957,22.812H20.282V16.9c0-1.487-.532-2.5-1.862-2.5a2.012,2.012,0,0,0-1.886,1.344,2.517,2.517,0,0,0-.121.9v6.175H12.739s.048-10.019,0-11.057h3.675v1.566A3.649,3.649,0,0,1,19.726,11.5c2.418,0,4.231,1.58,4.231,4.976Zm0,0"/></svg>