<svg xmlns="http://www.w3.org/2000/svg" width="30.18" height="30.181" viewBox="0 0 30.18 30.181"><defs><style>.a{fill:#fff;}</style></defs><path class="a" d="M212.777,209.888A2.888,2.888,0,1,1,209.888,207,2.888,2.888,0,0,1,212.777,209.888Zm0,0" transform="translate(-194.798 -194.798)"/><path class="a" d="M149.343,137.482a2.87,2.87,0,0,0-1.645-1.644,4.794,4.794,0,0,0-1.609-.3c-.914-.042-1.188-.051-3.5-.051s-2.588.009-3.5.05a4.8,4.8,0,0,0-1.609.3,2.871,2.871,0,0,0-1.645,1.644,4.8,4.8,0,0,0-.3,1.609c-.042.914-.051,1.188-.051,3.5s.009,2.588.051,3.5a4.794,4.794,0,0,0,.3,1.609,2.869,2.869,0,0,0,1.644,1.645,4.789,4.789,0,0,0,1.609.3c.914.042,1.187.05,3.5.05s2.588-.009,3.5-.05a4.789,4.789,0,0,0,1.609-.3,2.869,2.869,0,0,0,1.645-1.645,4.8,4.8,0,0,0,.3-1.609c.042-.914.05-1.188.05-3.5s-.009-2.588-.05-3.5A4.788,4.788,0,0,0,149.343,137.482Zm-6.755,9.56a4.449,4.449,0,1,1,4.449-4.449A4.45,4.45,0,0,1,142.588,147.041Zm4.625-8.035a1.04,1.04,0,1,1,1.04-1.04A1.04,1.04,0,0,1,147.214,139.006Zm0,0" transform="translate(-127.498 -127.502)"/><path class="a" d="M15.09,0A15.09,15.09,0,1,0,30.18,15.09,15.092,15.092,0,0,0,15.09,0ZM23.7,18.663a6.357,6.357,0,0,1-.4,2.1A4.431,4.431,0,0,1,20.766,23.3a6.362,6.362,0,0,1-2.1.4c-.924.042-1.219.052-3.572.052s-2.648-.01-3.573-.052a6.362,6.362,0,0,1-2.1-.4A4.431,4.431,0,0,1,6.88,20.766a6.356,6.356,0,0,1-.4-2.1c-.043-.924-.052-1.219-.052-3.573s.01-2.648.052-3.572a6.358,6.358,0,0,1,.4-2.1A4.434,4.434,0,0,1,9.414,6.88a6.363,6.363,0,0,1,2.1-.4c.924-.042,1.219-.052,3.572-.052s2.648.01,3.572.052a6.365,6.365,0,0,1,2.1.4A4.432,4.432,0,0,1,23.3,9.414a6.357,6.357,0,0,1,.4,2.1c.042.924.052,1.219.052,3.572S23.745,17.739,23.7,18.663Zm0,0"/></svg>