<svg xmlns="http://www.w3.org/2000/svg" width="60.693" height="35" viewBox="0 0 60.693 35"><defs><style>.a{fill:#003b6f;}</style></defs><g transform="translate(0 0)"><path class="a" d="M5.568,362.77H1.74a1.74,1.74,0,0,0,0,3.48H5.568a1.74,1.74,0,0,0,0-3.48Z" transform="translate(0 -331.25)"/><path class="a" d="M97.237,362.77h-6.5a1.74,1.74,0,1,0,0,3.48h6.5a1.74,1.74,0,1,0,0-3.48Z" transform="translate(-78.05 -331.25)"/><path class="a" d="M209.237,362.77h-6.5a1.74,1.74,0,1,0,0,3.48h6.5a1.74,1.74,0,0,0,0-3.48Z" transform="translate(-176.271 -331.25)"/><path class="a" d="M321.237,362.77h-6.5a1.74,1.74,0,1,0,0,3.48h6.5a1.74,1.74,0,1,0,0-3.48Z" transform="translate(-274.492 -331.25)"/><path class="a" d="M430.568,362.77H426.74a1.74,1.74,0,1,0,0,3.48h3.828a1.74,1.74,0,1,0,0-3.48Z" transform="translate(-372.802 -331.25)"/><path class="a" d="M185.371,125.64a6,6,0,0,0-1.088-2.911,6.29,6.29,0,0,0-1.26-1.317,7.218,7.218,0,0,0-4.677-1.477h-.013l-.385.023a7.67,7.67,0,0,0-2.741.758l-.011.006c-.295.156-.388.209-.424.231a18.814,18.814,0,0,1-5.964,2.377,20.617,20.617,0,0,1,3.819-5.4c.03-.03.1-.111.329-.367a.081.081,0,0,0,.008-.01,8.609,8.609,0,0,0,1.455-2.583l.125-.376a.056.056,0,0,0,0-.013,8,8,0,0,0-.889-6.837h0a5.543,5.543,0,0,0-1.568-1.493,5.237,5.237,0,0,0-3.554-.741,6.444,6.444,0,0,0-3.225,1.525,8,8,0,0,0-1.473,1.685,9.524,9.524,0,0,0-.982,2.029,8.033,8.033,0,0,0,.8,7.038,5.892,5.892,0,0,0,.755.87,5.293,5.293,0,0,0,.484.408l-1.909,4.685-14.508,2.707-.158.024a4.4,4.4,0,0,0-1.01.24,4.694,4.694,0,0,0-2.383,2.652,6.326,6.326,0,0,0-.383,1.192l-.192.928a.491.491,0,0,0,.106.419.433.433,0,0,0,.384.15l15.8-2.1-2.32,5.912h5.612l3.032-6.771,4.617-.612a5.851,5.851,0,0,0,.8,1.595,7.04,7.04,0,0,0,5.834,2.808,7.411,7.411,0,0,0,6.382-3.7A6.215,6.215,0,0,0,185.371,125.64Zm-18.365-9.65a2.067,2.067,0,0,1-.48-.486,3.856,3.856,0,0,1-.46-2.807,4.734,4.734,0,0,1,1.647-2.833,2.271,2.271,0,0,1,2.327-.455h0a1.882,1.882,0,0,1,.751.632,3.765,3.765,0,0,1,.508,2.552,4.736,4.736,0,0,1-1.736,3.142A2.194,2.194,0,0,1,167.006,115.991Zm14.786,10.41a2.451,2.451,0,0,1-.525,1.248,4.02,4.02,0,0,1-2.986,1.442,3.5,3.5,0,0,1-3-1.266c-.026-.036-.05-.073-.073-.11a2.187,2.187,0,0,1,.181-2.487,3.915,3.915,0,0,1,2.582-1.446l.124-.017a3.676,3.676,0,0,1,3.21,1.1c.039.046.075.094.11.142A2.061,2.061,0,0,1,181.792,126.4Z" transform="translate(-124.702 -105.456)"/></g></svg>