<svg xmlns="http://www.w3.org/2000/svg" width="39.375" height="35" viewBox="0 0 39.375 35"><defs><style>.a{fill:#003b6f;}</style></defs><g transform="translate(0 0)"><path class="a" d="M34.781,27.688A3.29,3.29,0,0,0,31.719,25.5H7.656a3.089,3.089,0,0,0-3.062,2.188L0,40.812v17.5A2.067,2.067,0,0,0,2.187,60.5H4.375a2.067,2.067,0,0,0,2.187-2.187V56.125h26.25v2.188A2.067,2.067,0,0,0,35,60.5h2.188a2.067,2.067,0,0,0,2.188-2.187v-17.5ZM7.656,49.562a3.281,3.281,0,0,1,0-6.563,3.281,3.281,0,0,1,0,6.563Zm24.062,0A3.281,3.281,0,1,1,35,46.281,3.364,3.364,0,0,1,31.719,49.562ZM4.375,38.625l3.281-9.844H31.719L35,38.625Z" transform="translate(0 -25.5)"/></g></svg>