<svg xmlns="http://www.w3.org/2000/svg" width="35.884" height="35" viewBox="0 0 35.884 35"><defs><style>.a{fill:#003b6f;}</style></defs><g transform="translate(0 0)"><g transform="translate(0 0)"><path class="a" d="M236.247,60.339l1.806,1.807a.29.29,0,0,0,.41,0l2-2a2.118,2.118,0,0,1,2.99.006l1.991,1.991a.29.29,0,0,0,.41,0l2.027-2.028a2.107,2.107,0,0,1,1.492-.614,2.212,2.212,0,0,1,1.293.452.271.271,0,0,0,.407-.106l.823-1.819a1.831,1.831,0,0,0-.911-2.422L240.569,50.9a1.83,1.83,0,0,0-2.422.912l-3.505,7.743a.118.118,0,0,0,.108.167h0A2.112,2.112,0,0,1,236.247,60.339Z" transform="translate(-217.207 -47.018)"/><path class="a" d="M36.587,52.133a.29.29,0,0,0,.271.209,2.057,2.057,0,0,1,1.364.626c.359.34,1.368,1.361,1.8,1.8a.29.29,0,0,0,.411,0l1.811-1.811a2.118,2.118,0,0,1,2.989.006l1.806,1.808a.29.29,0,0,0,.409,0c.445-.441,1.487-1.473,1.836-1.816a.271.271,0,0,0,.07-.269l-1.814-6.222a1.133,1.133,0,0,0-1.4-.77,1.821,1.821,0,0,1-2.258-1.238l-.493-1.691L37.44,44.5l.493,1.691A1.82,1.82,0,0,1,36.7,48.452a1.134,1.134,0,0,0-.772,1.406Z" transform="translate(-33.214 -39.646)"/><path class="a" d="M49.793,4.331l5.835-1.7-.175-.6A1.83,1.83,0,0,0,53.184.786l-2.323.677a1.83,1.83,0,0,0-1.244,2.27Z" transform="translate(-45.865 -0.712)"/><path class="a" d="M35.593,196.243l-3.2-3.2a.328.328,0,0,0-.464,0l-3.26,3.261a.328.328,0,0,1-.463,0l-3.23-3.23a.328.328,0,0,0-.464,0l-3.228,3.23a.328.328,0,0,1-.464,0l-3.044-3.046a.328.328,0,0,0-.464,0L14.266,196.3a.328.328,0,0,1-.464,0l-3.044-3.046a.328.328,0,0,0-.464,0L7.248,196.3a.328.328,0,0,1-.464,0l-3.043-3.046a.328.328,0,0,0-.464,0L.292,196.243a1,1,0,0,0-.292.7v17.5H35.884v-17.5A1,1,0,0,0,35.593,196.243Z" transform="translate(0 -179.448)"/></g></g></svg>