<svg xmlns="http://www.w3.org/2000/svg" width="29.789" height="35" viewBox="0 0 29.789 35"><defs><style>.a{fill:#003b6f;}</style></defs><path class="a" d="M63.9,64.444a14.905,14.905,0,0,1,2.614.238V62.148H72.68V66.67a6.873,6.873,0,0,1,1.751.914,3.3,3.3,0,0,1,1.491,2.568,9.631,9.631,0,0,0,3.251-1.418c.344-.236.757-.443,1-.621V61.076L69.57,49.23,58.784,61.148v4.259c.725-.184,1.386-.381,2.152-.59A11.346,11.346,0,0,1,63.9,64.444Z" transform="translate(-54.676 -43.593)"/><path class="a" d="M40.093,3.059,52.078,16.45h2.733L40.069,0l-6.1,6.715V4H29.5v7.651l-4.3,4.8h2.772Z" transform="translate(-25.151)"/><path class="a" d="M53.1,194.016a5.027,5.027,0,0,0-2.693,1.076,12.407,12.407,0,0,1-6.94,2.056,9.679,9.679,0,0,1-4.861-1.153c-.61-.366-.608-.488-.254-.488.71,0,2.84.493,4.283.493.71,0,1.254-.119,1.381-.475.588-1.647-1.692-2.177-4.076-3.142a16.32,16.32,0,0,0-5.9-1.24,9.391,9.391,0,0,0-2.457.3c-3.521.96-6.066,1.683-6.791,1.918V202.6a14.932,14.932,0,0,1,4.085-1.044c1.754,0,8.851,2.263,12.87,2.263a6.473,6.473,0,0,0,1.486-.146c3.411-.823,9.332-5.646,10.939-7.292A1.382,1.382,0,0,0,53.1,194.016Z" transform="translate(-24.786 -168.823)"/></svg>