<svg xmlns="http://www.w3.org/2000/svg" width="29.531" height="35" viewBox="0 0 29.531 35"><defs><style>.a{fill:#003b6f;}</style></defs><g transform="translate(-40 0)"><path class="a" d="M236.691,14.386,222.906.537a1.818,1.818,0,0,0-2.579,0,1.837,1.837,0,0,0,0,2.59l13.785,13.85a1.818,1.818,0,0,0,2.579,0A1.837,1.837,0,0,0,236.691,14.386Z" transform="translate(-167.694)"/><path class="a" d="M41.051,325.5a3.618,3.618,0,0,0,0,5.1l0,0a3.58,3.58,0,0,0,5.077,0l2.426-2.436-5.078-5.1Z" transform="translate(0 -301.122)"/><path class="a" d="M115.257,70.968,108.376,86.42l13.758,14.073a1.919,1.919,0,0,0,2.729,0,1.955,1.955,0,0,0,0-2.75l-3.529-3.779,1.142-1.151a3.548,3.548,0,0,0,0-4.986l-.327-.329,6.206-3.325Zm5.734,20.354-1.14,1.149-2.425-2.443,2.786-1.492.779.784A1.425,1.425,0,0,1,120.991,91.322Z" transform="translate(-63.65 -66.062)"/></g></svg>