<svg xmlns="http://www.w3.org/2000/svg" width="32.801" height="35" viewBox="0 0 32.801 35"><defs><style>.a{fill:#003b6f;}</style></defs><g transform="translate(-15.136)"><path class="a" d="M46.989,29.475,35.71,18.2a3.16,3.16,0,0,0-.335-.288l2-2.1a4.035,4.035,0,0,0,.288-.322A7.434,7.434,0,0,0,47.706,7.887a.642.642,0,0,0-1.093-.4L43,11.1l-3.66-.923L38.3,6.4,41.914,2.79a.642.642,0,0,0-.4-1.094,7.434,7.434,0,0,0-7.6,10.041c-.109.092-.217.19-.323.294l-2.94,2.824-5.4-5.4a1.985,1.985,0,0,0-.213-.183c.063-.111.125-.226.182-.344,1.14.219,3.225-2,5-3.771L25.064,0c-2.306,2.307-3.991,3.855-3.772,5A5.038,5.038,0,0,0,19.96,5.9l-.727.726A3.067,3.067,0,0,0,18.376,8.3c-.07.08-.142.165-.213.256l-.271.34c-.008.008-.031.042-.037.05l-.245.344c-.154.2-.288.427-.417.642q-.072.12-.146.239l-.023.041-.109.205c-.132.247-.269.5-.386.785l-.019.045a8.53,8.53,0,0,0-.381,1.027l-.048.156c-.04.128-.08.256-.117.408l-.1.5a5.688,5.688,0,0,0-.122.888l-.015.178a4.42,4.42,0,0,0-.016.78c0,.078.006.155.009.259,0,.043,0,.085,0,.127a2.519,2.519,0,0,0,.026.348l.063.4c.014.078.025.154.036.226a3.4,3.4,0,0,0,.1.493l.264.916a.617.617,0,0,0,1.2-.085l.137-.931a2.54,2.54,0,0,1,.075-.3c.023-.079.046-.16.064-.229l.1-.347a.969.969,0,0,1,.055-.14c.019-.044.039-.088.056-.133.033-.074.063-.148.094-.223a2.572,2.572,0,0,1,.2-.426c.038-.063.073-.126.108-.19a3.164,3.164,0,0,1,.278-.44l.019-.025.229-.316c.047-.059.1-.116.151-.172.036-.04.073-.08.119-.133a4.574,4.574,0,0,1,.448-.445l.082-.074c.114-.106.245-.205.384-.31l.167-.126c.07-.045.138-.091.2-.135a3.59,3.59,0,0,1,.358-.222l.272-.155.275-.135c.1-.05.19-.088.278-.123l.15-.063c.048-.017.095-.035.139-.051a1.817,1.817,0,0,1,.179-.06l.074-.017a2.017,2.017,0,0,0,.29.369l5.341,5.341-11.4,10.951-.013.013a3.379,3.379,0,0,0-.231,4.916c1.419,1.419,3.365,1.055,4.783-.363l.017-.018L30.95,22.568c.059.07.117.139.183.205L42.412,34.052a3.237,3.237,0,0,0,4.578-4.577ZM19.4,32.007a1.338,1.338,0,1,1,0-1.892A1.338,1.338,0,0,1,19.4,32.007Z" transform="translate(0)"/></g></svg>