<svg xmlns="http://www.w3.org/2000/svg" width="76.73" height="50.19" viewBox="0 0 76.73 50.19"><defs><style>.a{fill:#4fdbff;}.b{fill:#8ae7ff;}.c{fill:#14cfff;}.d{fill:#c4f3ff;}.e{fill:#3a6fd8;}.f{fill:#3b88f5;}</style></defs><g transform="translate(0 -87.25)"><path class="a" d="M471.448,94.865h-4.563v47.874h4.563a3.942,3.942,0,0,0,1.158-2.8V97.661A3.942,3.942,0,0,0,471.448,94.865Z" transform="translate(-395.876 -6.457)"/><path class="b" d="M129.4,97.661a3.942,3.942,0,0,0-1.158-2.8H68.658a3.942,3.942,0,0,0-1.158,2.8v42.281a3.942,3.942,0,0,0,1.158,2.8h59.585a3.942,3.942,0,0,0,1.158-2.8Z" transform="translate(-57.234 -6.457)"/><path class="c" d="M452.454,387.25l-3.954,4.563h4.563a3.942,3.942,0,0,0,2.8-1.158Z" transform="translate(-380.287 -254.373)"/><path class="a" d="M135.858,228.028v-.608L107.189,198.75,75.115,230.824a3.942,3.942,0,0,0,2.8,1.158H131.9A3.954,3.954,0,0,0,135.858,228.028Z" transform="translate(-63.691 -94.542)"/><path class="b" d="M453.063,87.25H448.5l3.954,4.563,3.4-3.4A3.942,3.942,0,0,0,453.063,87.25Z" transform="translate(-380.287 0)"/><path class="d" d="M131.9,87.25H77.911a3.942,3.942,0,0,0-2.8,1.158l26.428,26.428a7.985,7.985,0,0,0,11.292,0l23.023-23.023V91.2A3.954,3.954,0,0,0,131.9,87.25Z" transform="translate(-63.691)"/><path class="e" d="M19.392,247.031H1.141a1.141,1.141,0,1,1,0-2.281H19.392a1.141,1.141,0,1,1,0,2.281Z" transform="translate(0 -133.546)"/><g transform="translate(0 102.079)"><path class="f" d="M14.829,187.031H1.141a1.141,1.141,0,1,1,0-2.281H14.829a1.141,1.141,0,0,1,0,2.281Z" transform="translate(0 -184.75)"/><path class="f" d="M14.829,307.031H1.141a1.141,1.141,0,1,1,0-2.281H14.829a1.141,1.141,0,0,1,0,2.281Z" transform="translate(0 -286.499)"/></g></g></svg>