<svg id="laptop" xmlns="http://www.w3.org/2000/svg" width="29.201" height="27.137" viewBox="0 0 29.201 27.137">
  <g id="Group_77" data-name="Group 77">
    <path id="Path_83" data-name="Path 83" d="M29.087,24.357,27.2,17.285V4.491A3.558,3.558,0,0,0,23.647.937H5.555A3.558,3.558,0,0,0,2,4.491v12.8L.116,24.358a2.973,2.973,0,0,0,.457,2.6,2.974,2.974,0,0,0,2.4,1.113h23.26a2.856,2.856,0,0,0,2.855-3.717ZM5.555,2.874H23.647A1.617,1.617,0,0,1,25.263,4.49V16.963H3.94V4.491A1.617,1.617,0,0,1,5.555,2.874ZM27.092,25.781a1.052,1.052,0,0,1-.861.355H2.969a1.049,1.049,0,0,1-.861-.355,1.05,1.05,0,0,1-.121-.923l1.919-7.193.007-.055H25.288l.007.055,1.918,7.193A1.046,1.046,0,0,1,27.092,25.781Z" transform="translate(0 -0.937)" fill="#fff"/>
    <path id="Path_84" data-name="Path 84" d="M5.1,15.74H23.193a.65.65,0,0,0,.646-.646V4.27a.649.649,0,0,0-.646-.646H5.1a.648.648,0,0,0-.646.646V15.094A.647.647,0,0,0,5.1,15.74Z" transform="translate(0.454 -0.663)" fill="#fff"/>
    <path id="Path_85" data-name="Path 85" d="M9.38,19.741l-.7,3.206H18.1l-.7-3.206Z" transform="translate(0.885 0.981)" fill="#fff"/>
  </g>
</svg>
