<svg xmlns="http://www.w3.org/2000/svg" width="40.053" height="35" viewBox="0 0 40.053 35"><defs><style>.a{fill:#fff;}</style></defs><path class="a" d="M78.943,204.362a10.189,10.189,0,0,0-17.157,0l-5.158,8.047a5.937,5.937,0,0,0,7.389,8.64h0a15.77,15.77,0,0,1,12.695,0,5.938,5.938,0,0,0,7.389-8.64Z" transform="translate(-50.985 -186.551)"/><path class="a" d="M6.647,133.947c2.371-.911,3.424-3.907,2.353-6.689s-3.862-4.3-6.23-3.386-3.421,3.907-2.352,6.689S4.281,134.86,6.647,133.947Z" transform="translate(0 -116.123)"/><path class="a" d="M128.323,44.018c3.089,0,5.593-2.941,5.593-6.567s-2.5-6.569-5.593-6.569-5.593,2.941-5.593,6.569S125.235,44.018,128.323,44.018Z" transform="translate(-112.81 -30.882)"/><path class="a" d="M273.1,71.723c2.931.974,6.236-1.027,7.38-4.469s-.306-7.023-3.235-8-6.236,1.027-7.379,4.469S270.166,70.749,273.1,71.723Z" transform="translate(-247.697 -56.635)"/><path class="a" d="M381.776,189.235c-2.043-1.509-5.135-.792-6.909,1.6s-1.555,5.565.484,7.074,5.134.792,6.909-1.6S383.814,190.745,381.776,189.235Z" transform="translate(-343.406 -175.721)"/></svg>